<mxfile host="app.diagrams.net" modified="2024-05-31T02:31:16.252Z" agent="Mozilla/5.0 (X11; Ubuntu; Linux x86_64; rv:126.0) Gecko/20100101 Firefox/126.0" version="24.4.10" etag="-JPVlq7UFhKTNzmBpJ7Z" type="github">
  <diagram name="Page-1" id="v_p8btcLHBXj9sJYUHT2">
    <mxGraphModel>
      <root>
        <mxCell id="0" />
        <mxCell id="1" parent="0" />
      </root>
    </mxGraphModel>
  </diagram>
</mxfile>
